<svg xmlns="http://www.w3.org/2000/svg" width="1900" height="634" viewBox="0 0 1900 634" font-family="Menlo, Consolas, monospace">
<rect width="1900" height="634" fill="#fbfbfb"/>
<text x="950.0" y="30" font-size="18" text-anchor="middle" fill="#222">Miscellaneous read-side threshold zoom: half-empty and empty</text>
<text x="950.0" y="52" font-size="12" text-anchor="middle" fill="#555">Red ticks mark rising clock edges. Pointer tracks show binary pointer locations in decimal.</text>
<line x1="145.0" y1="562" x2="145.0" y2="568" stroke="#888"/>
<text x="145.0" y="584" font-size="11" text-anchor="middle" fill="#333">1780 ns</text>
<line x1="316.5" y1="562" x2="316.5" y2="568" stroke="#888"/>
<text x="316.5" y="584" font-size="11" text-anchor="middle" fill="#333">1854 ns</text>
<line x1="488.0" y1="562" x2="488.0" y2="568" stroke="#888"/>
<text x="488.0" y="584" font-size="11" text-anchor="middle" fill="#333">1928 ns</text>
<line x1="659.5" y1="562" x2="659.5" y2="568" stroke="#888"/>
<text x="659.5" y="584" font-size="11" text-anchor="middle" fill="#333">2002 ns</text>
<line x1="831.0" y1="562" x2="831.0" y2="568" stroke="#888"/>
<text x="831.0" y="584" font-size="11" text-anchor="middle" fill="#333">2076 ns</text>
<line x1="1002.5" y1="562" x2="1002.5" y2="568" stroke="#888"/>
<text x="1002.5" y="584" font-size="11" text-anchor="middle" fill="#333">2150 ns</text>
<line x1="1174.0" y1="562" x2="1174.0" y2="568" stroke="#888"/>
<text x="1174.0" y="584" font-size="11" text-anchor="middle" fill="#333">2224 ns</text>
<line x1="1345.5" y1="562" x2="1345.5" y2="568" stroke="#888"/>
<text x="1345.5" y="584" font-size="11" text-anchor="middle" fill="#333">2298 ns</text>
<line x1="1517.0" y1="562" x2="1517.0" y2="568" stroke="#888"/>
<text x="1517.0" y="584" font-size="11" text-anchor="middle" fill="#333">2372 ns</text>
<line x1="1688.5" y1="562" x2="1688.5" y2="568" stroke="#888"/>
<text x="1688.5" y="584" font-size="11" text-anchor="middle" fill="#333">2446 ns</text>
<line x1="1860.0" y1="562" x2="1860.0" y2="568" stroke="#888"/>
<text x="1860.0" y="584" font-size="11" text-anchor="middle" fill="#333">2520 ns</text>
<text x="133" y="106.0" font-size="13" text-anchor="end" fill="#222">wclk</text>
<line x1="145" y1="120" x2="1860" y2="120" stroke="#bbb"/>
<line x1="147.9" y1="84" x2="147.9" y2="118" stroke="#d72638" stroke-width="1.2" opacity="0.65"/>
<line x1="176.9" y1="84" x2="176.9" y2="118" stroke="#d72638" stroke-width="1.2" opacity="0.65"/>
<line x1="205.8" y1="84" x2="205.8" y2="118" stroke="#d72638" stroke-width="1.2" opacity="0.65"/>
<line x1="234.8" y1="84" x2="234.8" y2="118" stroke="#d72638" stroke-width="1.2" opacity="0.65"/>
<line x1="263.8" y1="84" x2="263.8" y2="118" stroke="#d72638" stroke-width="1.2" opacity="0.65"/>
<line x1="292.7" y1="84" x2="292.7" y2="118" stroke="#d72638" stroke-width="1.2" opacity="0.65"/>
<line x1="321.7" y1="84" x2="321.7" y2="118" stroke="#d72638" stroke-width="1.2" opacity="0.65"/>
<line x1="350.7" y1="84" x2="350.7" y2="118" stroke="#d72638" stroke-width="1.2" opacity="0.65"/>
<line x1="379.7" y1="84" x2="379.7" y2="118" stroke="#d72638" stroke-width="1.2" opacity="0.65"/>
<line x1="408.6" y1="84" x2="408.6" y2="118" stroke="#d72638" stroke-width="1.2" opacity="0.65"/>
<line x1="437.6" y1="84" x2="437.6" y2="118" stroke="#d72638" stroke-width="1.2" opacity="0.65"/>
<line x1="466.6" y1="84" x2="466.6" y2="118" stroke="#d72638" stroke-width="1.2" opacity="0.65"/>
<line x1="495.5" y1="84" x2="495.5" y2="118" stroke="#d72638" stroke-width="1.2" opacity="0.65"/>
<line x1="524.5" y1="84" x2="524.5" y2="118" stroke="#d72638" stroke-width="1.2" opacity="0.65"/>
<line x1="553.5" y1="84" x2="553.5" y2="118" stroke="#d72638" stroke-width="1.2" opacity="0.65"/>
<line x1="582.4" y1="84" x2="582.4" y2="118" stroke="#d72638" stroke-width="1.2" opacity="0.65"/>
<line x1="611.4" y1="84" x2="611.4" y2="118" stroke="#d72638" stroke-width="1.2" opacity="0.65"/>
<line x1="640.4" y1="84" x2="640.4" y2="118" stroke="#d72638" stroke-width="1.2" opacity="0.65"/>
<line x1="669.3" y1="84" x2="669.3" y2="118" stroke="#d72638" stroke-width="1.2" opacity="0.65"/>
<line x1="698.3" y1="84" x2="698.3" y2="118" stroke="#d72638" stroke-width="1.2" opacity="0.65"/>
<line x1="727.3" y1="84" x2="727.3" y2="118" stroke="#d72638" stroke-width="1.2" opacity="0.65"/>
<line x1="756.3" y1="84" x2="756.3" y2="118" stroke="#d72638" stroke-width="1.2" opacity="0.65"/>
<line x1="785.2" y1="84" x2="785.2" y2="118" stroke="#d72638" stroke-width="1.2" opacity="0.65"/>
<line x1="814.2" y1="84" x2="814.2" y2="118" stroke="#d72638" stroke-width="1.2" opacity="0.65"/>
<line x1="843.2" y1="84" x2="843.2" y2="118" stroke="#d72638" stroke-width="1.2" opacity="0.65"/>
<line x1="872.1" y1="84" x2="872.1" y2="118" stroke="#d72638" stroke-width="1.2" opacity="0.65"/>
<line x1="901.1" y1="84" x2="901.1" y2="118" stroke="#d72638" stroke-width="1.2" opacity="0.65"/>
<line x1="930.1" y1="84" x2="930.1" y2="118" stroke="#d72638" stroke-width="1.2" opacity="0.65"/>
<line x1="959.0" y1="84" x2="959.0" y2="118" stroke="#d72638" stroke-width="1.2" opacity="0.65"/>
<line x1="988.0" y1="84" x2="988.0" y2="118" stroke="#d72638" stroke-width="1.2" opacity="0.65"/>
<line x1="1017.0" y1="84" x2="1017.0" y2="118" stroke="#d72638" stroke-width="1.2" opacity="0.65"/>
<line x1="1046.0" y1="84" x2="1046.0" y2="118" stroke="#d72638" stroke-width="1.2" opacity="0.65"/>
<line x1="1074.9" y1="84" x2="1074.9" y2="118" stroke="#d72638" stroke-width="1.2" opacity="0.65"/>
<line x1="1103.9" y1="84" x2="1103.9" y2="118" stroke="#d72638" stroke-width="1.2" opacity="0.65"/>
<line x1="1132.9" y1="84" x2="1132.9" y2="118" stroke="#d72638" stroke-width="1.2" opacity="0.65"/>
<line x1="1161.8" y1="84" x2="1161.8" y2="118" stroke="#d72638" stroke-width="1.2" opacity="0.65"/>
<line x1="1190.8" y1="84" x2="1190.8" y2="118" stroke="#d72638" stroke-width="1.2" opacity="0.65"/>
<line x1="1219.8" y1="84" x2="1219.8" y2="118" stroke="#d72638" stroke-width="1.2" opacity="0.65"/>
<line x1="1248.7" y1="84" x2="1248.7" y2="118" stroke="#d72638" stroke-width="1.2" opacity="0.65"/>
<line x1="1277.7" y1="84" x2="1277.7" y2="118" stroke="#d72638" stroke-width="1.2" opacity="0.65"/>
<line x1="1306.7" y1="84" x2="1306.7" y2="118" stroke="#d72638" stroke-width="1.2" opacity="0.65"/>
<line x1="1335.7" y1="84" x2="1335.7" y2="118" stroke="#d72638" stroke-width="1.2" opacity="0.65"/>
<line x1="1364.6" y1="84" x2="1364.6" y2="118" stroke="#d72638" stroke-width="1.2" opacity="0.65"/>
<line x1="1393.6" y1="84" x2="1393.6" y2="118" stroke="#d72638" stroke-width="1.2" opacity="0.65"/>
<line x1="1422.6" y1="84" x2="1422.6" y2="118" stroke="#d72638" stroke-width="1.2" opacity="0.65"/>
<line x1="1451.5" y1="84" x2="1451.5" y2="118" stroke="#d72638" stroke-width="1.2" opacity="0.65"/>
<line x1="1480.5" y1="84" x2="1480.5" y2="118" stroke="#d72638" stroke-width="1.2" opacity="0.65"/>
<line x1="1509.5" y1="84" x2="1509.5" y2="118" stroke="#d72638" stroke-width="1.2" opacity="0.65"/>
<line x1="1538.4" y1="84" x2="1538.4" y2="118" stroke="#d72638" stroke-width="1.2" opacity="0.65"/>
<line x1="1567.4" y1="84" x2="1567.4" y2="118" stroke="#d72638" stroke-width="1.2" opacity="0.65"/>
<line x1="1596.4" y1="84" x2="1596.4" y2="118" stroke="#d72638" stroke-width="1.2" opacity="0.65"/>
<line x1="1625.3" y1="84" x2="1625.3" y2="118" stroke="#d72638" stroke-width="1.2" opacity="0.65"/>
<line x1="1654.3" y1="84" x2="1654.3" y2="118" stroke="#d72638" stroke-width="1.2" opacity="0.65"/>
<line x1="1683.3" y1="84" x2="1683.3" y2="118" stroke="#d72638" stroke-width="1.2" opacity="0.65"/>
<line x1="1712.3" y1="84" x2="1712.3" y2="118" stroke="#d72638" stroke-width="1.2" opacity="0.65"/>
<line x1="1741.2" y1="84" x2="1741.2" y2="118" stroke="#d72638" stroke-width="1.2" opacity="0.65"/>
<line x1="1770.2" y1="84" x2="1770.2" y2="118" stroke="#d72638" stroke-width="1.2" opacity="0.65"/>
<line x1="1799.2" y1="84" x2="1799.2" y2="118" stroke="#d72638" stroke-width="1.2" opacity="0.65"/>
<line x1="1828.1" y1="84" x2="1828.1" y2="118" stroke="#d72638" stroke-width="1.2" opacity="0.65"/>
<line x1="1857.1" y1="84" x2="1857.1" y2="118" stroke="#d72638" stroke-width="1.2" opacity="0.65"/>
<line x1="145.0" y1="111.0" x2="147.9" y2="111.0" stroke="#333" stroke-width="2"/>
<line x1="147.9" y1="91.0" x2="162.4" y2="91.0" stroke="#006600" stroke-width="2"/>
<line x1="162.4" y1="111.0" x2="176.9" y2="111.0" stroke="#333" stroke-width="2"/>
<line x1="176.9" y1="91.0" x2="191.4" y2="91.0" stroke="#006600" stroke-width="2"/>
<line x1="191.4" y1="111.0" x2="205.8" y2="111.0" stroke="#333" stroke-width="2"/>
<line x1="205.8" y1="91.0" x2="220.3" y2="91.0" stroke="#006600" stroke-width="2"/>
<line x1="220.3" y1="111.0" x2="234.8" y2="111.0" stroke="#333" stroke-width="2"/>
<line x1="234.8" y1="91.0" x2="249.3" y2="91.0" stroke="#006600" stroke-width="2"/>
<line x1="249.3" y1="111.0" x2="263.8" y2="111.0" stroke="#333" stroke-width="2"/>
<line x1="263.8" y1="91.0" x2="278.3" y2="91.0" stroke="#006600" stroke-width="2"/>
<line x1="278.3" y1="111.0" x2="292.7" y2="111.0" stroke="#333" stroke-width="2"/>
<line x1="292.7" y1="91.0" x2="307.2" y2="91.0" stroke="#006600" stroke-width="2"/>
<line x1="307.2" y1="111.0" x2="321.7" y2="111.0" stroke="#333" stroke-width="2"/>
<line x1="321.7" y1="91.0" x2="336.2" y2="91.0" stroke="#006600" stroke-width="2"/>
<line x1="336.2" y1="111.0" x2="350.7" y2="111.0" stroke="#333" stroke-width="2"/>
<line x1="350.7" y1="91.0" x2="365.2" y2="91.0" stroke="#006600" stroke-width="2"/>
<line x1="365.2" y1="111.0" x2="379.7" y2="111.0" stroke="#333" stroke-width="2"/>
<line x1="379.7" y1="91.0" x2="394.1" y2="91.0" stroke="#006600" stroke-width="2"/>
<line x1="394.1" y1="111.0" x2="408.6" y2="111.0" stroke="#333" stroke-width="2"/>
<line x1="408.6" y1="91.0" x2="423.1" y2="91.0" stroke="#006600" stroke-width="2"/>
<line x1="423.1" y1="111.0" x2="437.6" y2="111.0" stroke="#333" stroke-width="2"/>
<line x1="437.6" y1="91.0" x2="452.1" y2="91.0" stroke="#006600" stroke-width="2"/>
<line x1="452.1" y1="111.0" x2="466.6" y2="111.0" stroke="#333" stroke-width="2"/>
<line x1="466.6" y1="91.0" x2="481.0" y2="91.0" stroke="#006600" stroke-width="2"/>
<line x1="481.0" y1="111.0" x2="495.5" y2="111.0" stroke="#333" stroke-width="2"/>
<line x1="495.5" y1="91.0" x2="510.0" y2="91.0" stroke="#006600" stroke-width="2"/>
<line x1="510.0" y1="111.0" x2="524.5" y2="111.0" stroke="#333" stroke-width="2"/>
<line x1="524.5" y1="91.0" x2="539.0" y2="91.0" stroke="#006600" stroke-width="2"/>
<line x1="539.0" y1="111.0" x2="553.5" y2="111.0" stroke="#333" stroke-width="2"/>
<line x1="553.5" y1="91.0" x2="568.0" y2="91.0" stroke="#006600" stroke-width="2"/>
<line x1="568.0" y1="111.0" x2="582.4" y2="111.0" stroke="#333" stroke-width="2"/>
<line x1="582.4" y1="91.0" x2="596.9" y2="91.0" stroke="#006600" stroke-width="2"/>
<line x1="596.9" y1="111.0" x2="611.4" y2="111.0" stroke="#333" stroke-width="2"/>
<line x1="611.4" y1="91.0" x2="625.9" y2="91.0" stroke="#006600" stroke-width="2"/>
<line x1="625.9" y1="111.0" x2="640.4" y2="111.0" stroke="#333" stroke-width="2"/>
<line x1="640.4" y1="91.0" x2="654.9" y2="91.0" stroke="#006600" stroke-width="2"/>
<line x1="654.9" y1="111.0" x2="669.3" y2="111.0" stroke="#333" stroke-width="2"/>
<line x1="669.3" y1="91.0" x2="683.8" y2="91.0" stroke="#006600" stroke-width="2"/>
<line x1="683.8" y1="111.0" x2="698.3" y2="111.0" stroke="#333" stroke-width="2"/>
<line x1="698.3" y1="91.0" x2="712.8" y2="91.0" stroke="#006600" stroke-width="2"/>
<line x1="712.8" y1="111.0" x2="727.3" y2="111.0" stroke="#333" stroke-width="2"/>
<line x1="727.3" y1="91.0" x2="741.8" y2="91.0" stroke="#006600" stroke-width="2"/>
<line x1="741.8" y1="111.0" x2="756.3" y2="111.0" stroke="#333" stroke-width="2"/>
<line x1="756.3" y1="91.0" x2="770.7" y2="91.0" stroke="#006600" stroke-width="2"/>
<line x1="770.7" y1="111.0" x2="785.2" y2="111.0" stroke="#333" stroke-width="2"/>
<line x1="785.2" y1="91.0" x2="799.7" y2="91.0" stroke="#006600" stroke-width="2"/>
<line x1="799.7" y1="111.0" x2="814.2" y2="111.0" stroke="#333" stroke-width="2"/>
<line x1="814.2" y1="91.0" x2="828.7" y2="91.0" stroke="#006600" stroke-width="2"/>
<line x1="828.7" y1="111.0" x2="843.2" y2="111.0" stroke="#333" stroke-width="2"/>
<line x1="843.2" y1="91.0" x2="857.7" y2="91.0" stroke="#006600" stroke-width="2"/>
<line x1="857.7" y1="111.0" x2="872.1" y2="111.0" stroke="#333" stroke-width="2"/>
<line x1="872.1" y1="91.0" x2="886.6" y2="91.0" stroke="#006600" stroke-width="2"/>
<line x1="886.6" y1="111.0" x2="901.1" y2="111.0" stroke="#333" stroke-width="2"/>
<line x1="901.1" y1="91.0" x2="915.6" y2="91.0" stroke="#006600" stroke-width="2"/>
<line x1="915.6" y1="111.0" x2="930.1" y2="111.0" stroke="#333" stroke-width="2"/>
<line x1="930.1" y1="91.0" x2="944.6" y2="91.0" stroke="#006600" stroke-width="2"/>
<line x1="944.6" y1="111.0" x2="959.0" y2="111.0" stroke="#333" stroke-width="2"/>
<line x1="959.0" y1="91.0" x2="973.5" y2="91.0" stroke="#006600" stroke-width="2"/>
<line x1="973.5" y1="111.0" x2="988.0" y2="111.0" stroke="#333" stroke-width="2"/>
<line x1="988.0" y1="91.0" x2="1002.5" y2="91.0" stroke="#006600" stroke-width="2"/>
<line x1="1002.5" y1="111.0" x2="1017.0" y2="111.0" stroke="#333" stroke-width="2"/>
<line x1="1017.0" y1="91.0" x2="1031.5" y2="91.0" stroke="#006600" stroke-width="2"/>
<line x1="1031.5" y1="111.0" x2="1046.0" y2="111.0" stroke="#333" stroke-width="2"/>
<line x1="1046.0" y1="91.0" x2="1060.4" y2="91.0" stroke="#006600" stroke-width="2"/>
<line x1="1060.4" y1="111.0" x2="1074.9" y2="111.0" stroke="#333" stroke-width="2"/>
<line x1="1074.9" y1="91.0" x2="1089.4" y2="91.0" stroke="#006600" stroke-width="2"/>
<line x1="1089.4" y1="111.0" x2="1103.9" y2="111.0" stroke="#333" stroke-width="2"/>
<line x1="1103.9" y1="91.0" x2="1118.4" y2="91.0" stroke="#006600" stroke-width="2"/>
<line x1="1118.4" y1="111.0" x2="1132.9" y2="111.0" stroke="#333" stroke-width="2"/>
<line x1="1132.9" y1="91.0" x2="1147.3" y2="91.0" stroke="#006600" stroke-width="2"/>
<line x1="1147.3" y1="111.0" x2="1161.8" y2="111.0" stroke="#333" stroke-width="2"/>
<line x1="1161.8" y1="91.0" x2="1176.3" y2="91.0" stroke="#006600" stroke-width="2"/>
<line x1="1176.3" y1="111.0" x2="1190.8" y2="111.0" stroke="#333" stroke-width="2"/>
<line x1="1190.8" y1="91.0" x2="1205.3" y2="91.0" stroke="#006600" stroke-width="2"/>
<line x1="1205.3" y1="111.0" x2="1219.8" y2="111.0" stroke="#333" stroke-width="2"/>
<line x1="1219.8" y1="91.0" x2="1234.3" y2="91.0" stroke="#006600" stroke-width="2"/>
<line x1="1234.3" y1="111.0" x2="1248.7" y2="111.0" stroke="#333" stroke-width="2"/>
<line x1="1248.7" y1="91.0" x2="1263.2" y2="91.0" stroke="#006600" stroke-width="2"/>
<line x1="1263.2" y1="111.0" x2="1277.7" y2="111.0" stroke="#333" stroke-width="2"/>
<line x1="1277.7" y1="91.0" x2="1292.2" y2="91.0" stroke="#006600" stroke-width="2"/>
<line x1="1292.2" y1="111.0" x2="1306.7" y2="111.0" stroke="#333" stroke-width="2"/>
<line x1="1306.7" y1="91.0" x2="1321.2" y2="91.0" stroke="#006600" stroke-width="2"/>
<line x1="1321.2" y1="111.0" x2="1335.7" y2="111.0" stroke="#333" stroke-width="2"/>
<line x1="1335.7" y1="91.0" x2="1350.1" y2="91.0" stroke="#006600" stroke-width="2"/>
<line x1="1350.1" y1="111.0" x2="1364.6" y2="111.0" stroke="#333" stroke-width="2"/>
<line x1="1364.6" y1="91.0" x2="1379.1" y2="91.0" stroke="#006600" stroke-width="2"/>
<line x1="1379.1" y1="111.0" x2="1393.6" y2="111.0" stroke="#333" stroke-width="2"/>
<line x1="1393.6" y1="91.0" x2="1408.1" y2="91.0" stroke="#006600" stroke-width="2"/>
<line x1="1408.1" y1="111.0" x2="1422.6" y2="111.0" stroke="#333" stroke-width="2"/>
<line x1="1422.6" y1="91.0" x2="1437.0" y2="91.0" stroke="#006600" stroke-width="2"/>
<line x1="1437.0" y1="111.0" x2="1451.5" y2="111.0" stroke="#333" stroke-width="2"/>
<line x1="1451.5" y1="91.0" x2="1466.0" y2="91.0" stroke="#006600" stroke-width="2"/>
<line x1="1466.0" y1="111.0" x2="1480.5" y2="111.0" stroke="#333" stroke-width="2"/>
<line x1="1480.5" y1="91.0" x2="1495.0" y2="91.0" stroke="#006600" stroke-width="2"/>
<line x1="1495.0" y1="111.0" x2="1509.5" y2="111.0" stroke="#333" stroke-width="2"/>
<line x1="1509.5" y1="91.0" x2="1524.0" y2="91.0" stroke="#006600" stroke-width="2"/>
<line x1="1524.0" y1="111.0" x2="1538.4" y2="111.0" stroke="#333" stroke-width="2"/>
<line x1="1538.4" y1="91.0" x2="1552.9" y2="91.0" stroke="#006600" stroke-width="2"/>
<line x1="1552.9" y1="111.0" x2="1567.4" y2="111.0" stroke="#333" stroke-width="2"/>
<line x1="1567.4" y1="91.0" x2="1581.9" y2="91.0" stroke="#006600" stroke-width="2"/>
<line x1="1581.9" y1="111.0" x2="1596.4" y2="111.0" stroke="#333" stroke-width="2"/>
<line x1="1596.4" y1="91.0" x2="1610.9" y2="91.0" stroke="#006600" stroke-width="2"/>
<line x1="1610.9" y1="111.0" x2="1625.3" y2="111.0" stroke="#333" stroke-width="2"/>
<line x1="1625.3" y1="91.0" x2="1639.8" y2="91.0" stroke="#006600" stroke-width="2"/>
<line x1="1639.8" y1="111.0" x2="1654.3" y2="111.0" stroke="#333" stroke-width="2"/>
<line x1="1654.3" y1="91.0" x2="1668.8" y2="91.0" stroke="#006600" stroke-width="2"/>
<line x1="1668.8" y1="111.0" x2="1683.3" y2="111.0" stroke="#333" stroke-width="2"/>
<line x1="1683.3" y1="91.0" x2="1697.8" y2="91.0" stroke="#006600" stroke-width="2"/>
<line x1="1697.8" y1="111.0" x2="1712.3" y2="111.0" stroke="#333" stroke-width="2"/>
<line x1="1712.3" y1="91.0" x2="1726.7" y2="91.0" stroke="#006600" stroke-width="2"/>
<line x1="1726.7" y1="111.0" x2="1741.2" y2="111.0" stroke="#333" stroke-width="2"/>
<line x1="1741.2" y1="91.0" x2="1755.7" y2="91.0" stroke="#006600" stroke-width="2"/>
<line x1="1755.7" y1="111.0" x2="1770.2" y2="111.0" stroke="#333" stroke-width="2"/>
<line x1="1770.2" y1="91.0" x2="1784.7" y2="91.0" stroke="#006600" stroke-width="2"/>
<line x1="1784.7" y1="111.0" x2="1799.2" y2="111.0" stroke="#333" stroke-width="2"/>
<line x1="1799.2" y1="91.0" x2="1813.6" y2="91.0" stroke="#006600" stroke-width="2"/>
<line x1="1813.6" y1="111.0" x2="1828.1" y2="111.0" stroke="#333" stroke-width="2"/>
<line x1="1828.1" y1="91.0" x2="1842.6" y2="91.0" stroke="#006600" stroke-width="2"/>
<line x1="1842.6" y1="111.0" x2="1857.1" y2="111.0" stroke="#333" stroke-width="2"/>
<line x1="1857.1" y1="91.0" x2="1860.0" y2="91.0" stroke="#006600" stroke-width="2"/>
<text x="133" y="154.0" font-size="13" text-anchor="end" fill="#222">rclk</text>
<line x1="145" y1="168" x2="1860" y2="168" stroke="#bbb"/>
<line x1="168.2" y1="132" x2="168.2" y2="166" stroke="#d72638" stroke-width="1.2" opacity="0.65"/>
<line x1="214.5" y1="132" x2="214.5" y2="166" stroke="#d72638" stroke-width="1.2" opacity="0.65"/>
<line x1="260.9" y1="132" x2="260.9" y2="166" stroke="#d72638" stroke-width="1.2" opacity="0.65"/>
<line x1="307.2" y1="132" x2="307.2" y2="166" stroke="#d72638" stroke-width="1.2" opacity="0.65"/>
<line x1="353.6" y1="132" x2="353.6" y2="166" stroke="#d72638" stroke-width="1.2" opacity="0.65"/>
<line x1="399.9" y1="132" x2="399.9" y2="166" stroke="#d72638" stroke-width="1.2" opacity="0.65"/>
<line x1="446.3" y1="132" x2="446.3" y2="166" stroke="#d72638" stroke-width="1.2" opacity="0.65"/>
<line x1="492.6" y1="132" x2="492.6" y2="166" stroke="#d72638" stroke-width="1.2" opacity="0.65"/>
<line x1="539.0" y1="132" x2="539.0" y2="166" stroke="#d72638" stroke-width="1.2" opacity="0.65"/>
<line x1="585.3" y1="132" x2="585.3" y2="166" stroke="#d72638" stroke-width="1.2" opacity="0.65"/>
<line x1="631.7" y1="132" x2="631.7" y2="166" stroke="#d72638" stroke-width="1.2" opacity="0.65"/>
<line x1="678.0" y1="132" x2="678.0" y2="166" stroke="#d72638" stroke-width="1.2" opacity="0.65"/>
<line x1="724.4" y1="132" x2="724.4" y2="166" stroke="#d72638" stroke-width="1.2" opacity="0.65"/>
<line x1="770.7" y1="132" x2="770.7" y2="166" stroke="#d72638" stroke-width="1.2" opacity="0.65"/>
<line x1="817.1" y1="132" x2="817.1" y2="166" stroke="#d72638" stroke-width="1.2" opacity="0.65"/>
<line x1="863.4" y1="132" x2="863.4" y2="166" stroke="#d72638" stroke-width="1.2" opacity="0.65"/>
<line x1="909.8" y1="132" x2="909.8" y2="166" stroke="#d72638" stroke-width="1.2" opacity="0.65"/>
<line x1="956.1" y1="132" x2="956.1" y2="166" stroke="#d72638" stroke-width="1.2" opacity="0.65"/>
<line x1="1002.5" y1="132" x2="1002.5" y2="166" stroke="#d72638" stroke-width="1.2" opacity="0.65"/>
<line x1="1048.9" y1="132" x2="1048.9" y2="166" stroke="#d72638" stroke-width="1.2" opacity="0.65"/>
<line x1="1095.2" y1="132" x2="1095.2" y2="166" stroke="#d72638" stroke-width="1.2" opacity="0.65"/>
<line x1="1141.6" y1="132" x2="1141.6" y2="166" stroke="#d72638" stroke-width="1.2" opacity="0.65"/>
<line x1="1187.9" y1="132" x2="1187.9" y2="166" stroke="#d72638" stroke-width="1.2" opacity="0.65"/>
<line x1="1234.3" y1="132" x2="1234.3" y2="166" stroke="#d72638" stroke-width="1.2" opacity="0.65"/>
<line x1="1280.6" y1="132" x2="1280.6" y2="166" stroke="#d72638" stroke-width="1.2" opacity="0.65"/>
<line x1="1327.0" y1="132" x2="1327.0" y2="166" stroke="#d72638" stroke-width="1.2" opacity="0.65"/>
<line x1="1373.3" y1="132" x2="1373.3" y2="166" stroke="#d72638" stroke-width="1.2" opacity="0.65"/>
<line x1="1419.7" y1="132" x2="1419.7" y2="166" stroke="#d72638" stroke-width="1.2" opacity="0.65"/>
<line x1="1466.0" y1="132" x2="1466.0" y2="166" stroke="#d72638" stroke-width="1.2" opacity="0.65"/>
<line x1="1512.4" y1="132" x2="1512.4" y2="166" stroke="#d72638" stroke-width="1.2" opacity="0.65"/>
<line x1="1558.7" y1="132" x2="1558.7" y2="166" stroke="#d72638" stroke-width="1.2" opacity="0.65"/>
<line x1="1605.1" y1="132" x2="1605.1" y2="166" stroke="#d72638" stroke-width="1.2" opacity="0.65"/>
<line x1="1651.4" y1="132" x2="1651.4" y2="166" stroke="#d72638" stroke-width="1.2" opacity="0.65"/>
<line x1="1697.8" y1="132" x2="1697.8" y2="166" stroke="#d72638" stroke-width="1.2" opacity="0.65"/>
<line x1="1744.1" y1="132" x2="1744.1" y2="166" stroke="#d72638" stroke-width="1.2" opacity="0.65"/>
<line x1="1790.5" y1="132" x2="1790.5" y2="166" stroke="#d72638" stroke-width="1.2" opacity="0.65"/>
<line x1="1836.8" y1="132" x2="1836.8" y2="166" stroke="#d72638" stroke-width="1.2" opacity="0.65"/>
<line x1="145.0" y1="159.0" x2="168.2" y2="159.0" stroke="#333" stroke-width="2"/>
<line x1="168.2" y1="139.0" x2="191.4" y2="139.0" stroke="#006600" stroke-width="2"/>
<line x1="191.4" y1="159.0" x2="214.5" y2="159.0" stroke="#333" stroke-width="2"/>
<line x1="214.5" y1="139.0" x2="237.7" y2="139.0" stroke="#006600" stroke-width="2"/>
<line x1="237.7" y1="159.0" x2="260.9" y2="159.0" stroke="#333" stroke-width="2"/>
<line x1="260.9" y1="139.0" x2="284.1" y2="139.0" stroke="#006600" stroke-width="2"/>
<line x1="284.1" y1="159.0" x2="307.2" y2="159.0" stroke="#333" stroke-width="2"/>
<line x1="307.2" y1="139.0" x2="330.4" y2="139.0" stroke="#006600" stroke-width="2"/>
<line x1="330.4" y1="159.0" x2="353.6" y2="159.0" stroke="#333" stroke-width="2"/>
<line x1="353.6" y1="139.0" x2="376.8" y2="139.0" stroke="#006600" stroke-width="2"/>
<line x1="376.8" y1="159.0" x2="399.9" y2="159.0" stroke="#333" stroke-width="2"/>
<line x1="399.9" y1="139.0" x2="423.1" y2="139.0" stroke="#006600" stroke-width="2"/>
<line x1="423.1" y1="159.0" x2="446.3" y2="159.0" stroke="#333" stroke-width="2"/>
<line x1="446.3" y1="139.0" x2="469.5" y2="139.0" stroke="#006600" stroke-width="2"/>
<line x1="469.5" y1="159.0" x2="492.6" y2="159.0" stroke="#333" stroke-width="2"/>
<line x1="492.6" y1="139.0" x2="515.8" y2="139.0" stroke="#006600" stroke-width="2"/>
<line x1="515.8" y1="159.0" x2="539.0" y2="159.0" stroke="#333" stroke-width="2"/>
<line x1="539.0" y1="139.0" x2="562.2" y2="139.0" stroke="#006600" stroke-width="2"/>
<line x1="562.2" y1="159.0" x2="585.3" y2="159.0" stroke="#333" stroke-width="2"/>
<line x1="585.3" y1="139.0" x2="608.5" y2="139.0" stroke="#006600" stroke-width="2"/>
<line x1="608.5" y1="159.0" x2="631.7" y2="159.0" stroke="#333" stroke-width="2"/>
<line x1="631.7" y1="139.0" x2="654.9" y2="139.0" stroke="#006600" stroke-width="2"/>
<line x1="654.9" y1="159.0" x2="678.0" y2="159.0" stroke="#333" stroke-width="2"/>
<line x1="678.0" y1="139.0" x2="701.2" y2="139.0" stroke="#006600" stroke-width="2"/>
<line x1="701.2" y1="159.0" x2="724.4" y2="159.0" stroke="#333" stroke-width="2"/>
<line x1="724.4" y1="139.0" x2="747.6" y2="139.0" stroke="#006600" stroke-width="2"/>
<line x1="747.6" y1="159.0" x2="770.7" y2="159.0" stroke="#333" stroke-width="2"/>
<line x1="770.7" y1="139.0" x2="793.9" y2="139.0" stroke="#006600" stroke-width="2"/>
<line x1="793.9" y1="159.0" x2="817.1" y2="159.0" stroke="#333" stroke-width="2"/>
<line x1="817.1" y1="139.0" x2="840.3" y2="139.0" stroke="#006600" stroke-width="2"/>
<line x1="840.3" y1="159.0" x2="863.4" y2="159.0" stroke="#333" stroke-width="2"/>
<line x1="863.4" y1="139.0" x2="886.6" y2="139.0" stroke="#006600" stroke-width="2"/>
<line x1="886.6" y1="159.0" x2="909.8" y2="159.0" stroke="#333" stroke-width="2"/>
<line x1="909.8" y1="139.0" x2="933.0" y2="139.0" stroke="#006600" stroke-width="2"/>
<line x1="933.0" y1="159.0" x2="956.1" y2="159.0" stroke="#333" stroke-width="2"/>
<line x1="956.1" y1="139.0" x2="979.3" y2="139.0" stroke="#006600" stroke-width="2"/>
<line x1="979.3" y1="159.0" x2="1002.5" y2="159.0" stroke="#333" stroke-width="2"/>
<line x1="1002.5" y1="139.0" x2="1025.7" y2="139.0" stroke="#006600" stroke-width="2"/>
<line x1="1025.7" y1="159.0" x2="1048.9" y2="159.0" stroke="#333" stroke-width="2"/>
<line x1="1048.9" y1="139.0" x2="1072.0" y2="139.0" stroke="#006600" stroke-width="2"/>
<line x1="1072.0" y1="159.0" x2="1095.2" y2="159.0" stroke="#333" stroke-width="2"/>
<line x1="1095.2" y1="139.0" x2="1118.4" y2="139.0" stroke="#006600" stroke-width="2"/>
<line x1="1118.4" y1="159.0" x2="1141.6" y2="159.0" stroke="#333" stroke-width="2"/>
<line x1="1141.6" y1="139.0" x2="1164.7" y2="139.0" stroke="#006600" stroke-width="2"/>
<line x1="1164.7" y1="159.0" x2="1187.9" y2="159.0" stroke="#333" stroke-width="2"/>
<line x1="1187.9" y1="139.0" x2="1211.1" y2="139.0" stroke="#006600" stroke-width="2"/>
<line x1="1211.1" y1="159.0" x2="1234.3" y2="159.0" stroke="#333" stroke-width="2"/>
<line x1="1234.3" y1="139.0" x2="1257.4" y2="139.0" stroke="#006600" stroke-width="2"/>
<line x1="1257.4" y1="159.0" x2="1280.6" y2="159.0" stroke="#333" stroke-width="2"/>
<line x1="1280.6" y1="139.0" x2="1303.8" y2="139.0" stroke="#006600" stroke-width="2"/>
<line x1="1303.8" y1="159.0" x2="1327.0" y2="159.0" stroke="#333" stroke-width="2"/>
<line x1="1327.0" y1="139.0" x2="1350.1" y2="139.0" stroke="#006600" stroke-width="2"/>
<line x1="1350.1" y1="159.0" x2="1373.3" y2="159.0" stroke="#333" stroke-width="2"/>
<line x1="1373.3" y1="139.0" x2="1396.5" y2="139.0" stroke="#006600" stroke-width="2"/>
<line x1="1396.5" y1="159.0" x2="1419.7" y2="159.0" stroke="#333" stroke-width="2"/>
<line x1="1419.7" y1="139.0" x2="1442.8" y2="139.0" stroke="#006600" stroke-width="2"/>
<line x1="1442.8" y1="159.0" x2="1466.0" y2="159.0" stroke="#333" stroke-width="2"/>
<line x1="1466.0" y1="139.0" x2="1489.2" y2="139.0" stroke="#006600" stroke-width="2"/>
<line x1="1489.2" y1="159.0" x2="1512.4" y2="159.0" stroke="#333" stroke-width="2"/>
<line x1="1512.4" y1="139.0" x2="1535.5" y2="139.0" stroke="#006600" stroke-width="2"/>
<line x1="1535.5" y1="159.0" x2="1558.7" y2="159.0" stroke="#333" stroke-width="2"/>
<line x1="1558.7" y1="139.0" x2="1581.9" y2="139.0" stroke="#006600" stroke-width="2"/>
<line x1="1581.9" y1="159.0" x2="1605.1" y2="159.0" stroke="#333" stroke-width="2"/>
<line x1="1605.1" y1="139.0" x2="1628.2" y2="139.0" stroke="#006600" stroke-width="2"/>
<line x1="1628.2" y1="159.0" x2="1651.4" y2="159.0" stroke="#333" stroke-width="2"/>
<line x1="1651.4" y1="139.0" x2="1674.6" y2="139.0" stroke="#006600" stroke-width="2"/>
<line x1="1674.6" y1="159.0" x2="1697.8" y2="159.0" stroke="#333" stroke-width="2"/>
<line x1="1697.8" y1="139.0" x2="1720.9" y2="139.0" stroke="#006600" stroke-width="2"/>
<line x1="1720.9" y1="159.0" x2="1744.1" y2="159.0" stroke="#333" stroke-width="2"/>
<line x1="1744.1" y1="139.0" x2="1767.3" y2="139.0" stroke="#006600" stroke-width="2"/>
<line x1="1767.3" y1="159.0" x2="1790.5" y2="159.0" stroke="#333" stroke-width="2"/>
<line x1="1790.5" y1="139.0" x2="1813.6" y2="139.0" stroke="#006600" stroke-width="2"/>
<line x1="1813.6" y1="159.0" x2="1836.8" y2="159.0" stroke="#333" stroke-width="2"/>
<line x1="1836.8" y1="139.0" x2="1860.0" y2="139.0" stroke="#006600" stroke-width="2"/>
<text x="133" y="202.0" font-size="13" text-anchor="end" fill="#222">wptr dec</text>
<line x1="145" y1="216" x2="1860" y2="216" stroke="#bbb"/>
<rect x="145.0" y="186.0" width="1715.0" height="22.0" fill="#eef3ff" stroke="#2d7ff9" stroke-width="0.8"/>
<text x="1002.5" y="201.0" font-size="10" text-anchor="middle" fill="#114">64</text>
<text x="133" y="250.0" font-size="13" text-anchor="end" fill="#222">rptr dec</text>
<line x1="145" y1="264" x2="1860" y2="264" stroke="#bbb"/>
<rect x="145.0" y="234.0" width="23.2" height="22.0" fill="#eef3ff" stroke="#2d7ff9" stroke-width="0.8"/>
<rect x="168.2" y="234.0" width="46.4" height="22.0" fill="#eef3ff" stroke="#2d7ff9" stroke-width="0.8"/>
<text x="191.4" y="249.0" font-size="10" text-anchor="middle" fill="#114">30</text>
<rect x="214.5" y="234.0" width="46.4" height="22.0" fill="#eef3ff" stroke="#2d7ff9" stroke-width="0.8"/>
<text x="237.7" y="249.0" font-size="10" text-anchor="middle" fill="#114">31</text>
<rect x="260.9" y="234.0" width="92.7" height="22.0" fill="#eef3ff" stroke="#2d7ff9" stroke-width="0.8"/>
<text x="307.2" y="249.0" font-size="10" text-anchor="middle" fill="#114">32</text>
<rect x="353.6" y="234.0" width="46.4" height="22.0" fill="#eef3ff" stroke="#2d7ff9" stroke-width="0.8"/>
<text x="376.8" y="249.0" font-size="10" text-anchor="middle" fill="#114">33</text>
<rect x="399.9" y="234.0" width="46.4" height="22.0" fill="#eef3ff" stroke="#2d7ff9" stroke-width="0.8"/>
<text x="423.1" y="249.0" font-size="10" text-anchor="middle" fill="#114">34</text>
<rect x="446.3" y="234.0" width="46.4" height="22.0" fill="#eef3ff" stroke="#2d7ff9" stroke-width="0.8"/>
<text x="469.5" y="249.0" font-size="10" text-anchor="middle" fill="#114">35</text>
<rect x="492.6" y="234.0" width="46.4" height="22.0" fill="#eef3ff" stroke="#2d7ff9" stroke-width="0.8"/>
<text x="515.8" y="249.0" font-size="10" text-anchor="middle" fill="#114">36</text>
<rect x="539.0" y="234.0" width="46.4" height="22.0" fill="#eef3ff" stroke="#2d7ff9" stroke-width="0.8"/>
<text x="562.2" y="249.0" font-size="10" text-anchor="middle" fill="#114">37</text>
<rect x="585.3" y="234.0" width="46.4" height="22.0" fill="#eef3ff" stroke="#2d7ff9" stroke-width="0.8"/>
<text x="608.5" y="249.0" font-size="10" text-anchor="middle" fill="#114">38</text>
<rect x="631.7" y="234.0" width="46.4" height="22.0" fill="#eef3ff" stroke="#2d7ff9" stroke-width="0.8"/>
<text x="654.9" y="249.0" font-size="10" text-anchor="middle" fill="#114">39</text>
<rect x="678.0" y="234.0" width="46.4" height="22.0" fill="#eef3ff" stroke="#2d7ff9" stroke-width="0.8"/>
<text x="701.2" y="249.0" font-size="10" text-anchor="middle" fill="#114">40</text>
<rect x="724.4" y="234.0" width="46.4" height="22.0" fill="#eef3ff" stroke="#2d7ff9" stroke-width="0.8"/>
<text x="747.6" y="249.0" font-size="10" text-anchor="middle" fill="#114">41</text>
<rect x="770.7" y="234.0" width="46.4" height="22.0" fill="#eef3ff" stroke="#2d7ff9" stroke-width="0.8"/>
<text x="793.9" y="249.0" font-size="10" text-anchor="middle" fill="#114">42</text>
<rect x="817.1" y="234.0" width="46.4" height="22.0" fill="#eef3ff" stroke="#2d7ff9" stroke-width="0.8"/>
<text x="840.3" y="249.0" font-size="10" text-anchor="middle" fill="#114">43</text>
<rect x="863.4" y="234.0" width="46.4" height="22.0" fill="#eef3ff" stroke="#2d7ff9" stroke-width="0.8"/>
<text x="886.6" y="249.0" font-size="10" text-anchor="middle" fill="#114">44</text>
<rect x="909.8" y="234.0" width="46.4" height="22.0" fill="#eef3ff" stroke="#2d7ff9" stroke-width="0.8"/>
<text x="933.0" y="249.0" font-size="10" text-anchor="middle" fill="#114">45</text>
<rect x="956.1" y="234.0" width="46.4" height="22.0" fill="#eef3ff" stroke="#2d7ff9" stroke-width="0.8"/>
<text x="979.3" y="249.0" font-size="10" text-anchor="middle" fill="#114">46</text>
<rect x="1002.5" y="234.0" width="46.4" height="22.0" fill="#eef3ff" stroke="#2d7ff9" stroke-width="0.8"/>
<text x="1025.7" y="249.0" font-size="10" text-anchor="middle" fill="#114">47</text>
<rect x="1048.9" y="234.0" width="46.4" height="22.0" fill="#eef3ff" stroke="#2d7ff9" stroke-width="0.8"/>
<text x="1072.0" y="249.0" font-size="10" text-anchor="middle" fill="#114">48</text>
<rect x="1095.2" y="234.0" width="46.4" height="22.0" fill="#eef3ff" stroke="#2d7ff9" stroke-width="0.8"/>
<text x="1118.4" y="249.0" font-size="10" text-anchor="middle" fill="#114">49</text>
<rect x="1141.6" y="234.0" width="46.4" height="22.0" fill="#eef3ff" stroke="#2d7ff9" stroke-width="0.8"/>
<text x="1164.7" y="249.0" font-size="10" text-anchor="middle" fill="#114">50</text>
<rect x="1187.9" y="234.0" width="46.4" height="22.0" fill="#eef3ff" stroke="#2d7ff9" stroke-width="0.8"/>
<text x="1211.1" y="249.0" font-size="10" text-anchor="middle" fill="#114">51</text>
<rect x="1234.3" y="234.0" width="46.4" height="22.0" fill="#eef3ff" stroke="#2d7ff9" stroke-width="0.8"/>
<text x="1257.4" y="249.0" font-size="10" text-anchor="middle" fill="#114">52</text>
<rect x="1280.6" y="234.0" width="46.4" height="22.0" fill="#eef3ff" stroke="#2d7ff9" stroke-width="0.8"/>
<text x="1303.8" y="249.0" font-size="10" text-anchor="middle" fill="#114">53</text>
<rect x="1327.0" y="234.0" width="46.4" height="22.0" fill="#eef3ff" stroke="#2d7ff9" stroke-width="0.8"/>
<text x="1350.1" y="249.0" font-size="10" text-anchor="middle" fill="#114">54</text>
<rect x="1373.3" y="234.0" width="46.4" height="22.0" fill="#eef3ff" stroke="#2d7ff9" stroke-width="0.8"/>
<text x="1396.5" y="249.0" font-size="10" text-anchor="middle" fill="#114">55</text>
<rect x="1419.7" y="234.0" width="46.4" height="22.0" fill="#eef3ff" stroke="#2d7ff9" stroke-width="0.8"/>
<text x="1442.8" y="249.0" font-size="10" text-anchor="middle" fill="#114">56</text>
<rect x="1466.0" y="234.0" width="46.4" height="22.0" fill="#eef3ff" stroke="#2d7ff9" stroke-width="0.8"/>
<text x="1489.2" y="249.0" font-size="10" text-anchor="middle" fill="#114">57</text>
<rect x="1512.4" y="234.0" width="46.4" height="22.0" fill="#eef3ff" stroke="#2d7ff9" stroke-width="0.8"/>
<text x="1535.5" y="249.0" font-size="10" text-anchor="middle" fill="#114">58</text>
<rect x="1558.7" y="234.0" width="46.4" height="22.0" fill="#eef3ff" stroke="#2d7ff9" stroke-width="0.8"/>
<text x="1581.9" y="249.0" font-size="10" text-anchor="middle" fill="#114">59</text>
<rect x="1605.1" y="234.0" width="46.4" height="22.0" fill="#eef3ff" stroke="#2d7ff9" stroke-width="0.8"/>
<text x="1628.2" y="249.0" font-size="10" text-anchor="middle" fill="#114">60</text>
<rect x="1651.4" y="234.0" width="46.4" height="22.0" fill="#eef3ff" stroke="#2d7ff9" stroke-width="0.8"/>
<text x="1674.6" y="249.0" font-size="10" text-anchor="middle" fill="#114">61</text>
<rect x="1697.8" y="234.0" width="46.4" height="22.0" fill="#eef3ff" stroke="#2d7ff9" stroke-width="0.8"/>
<text x="1720.9" y="249.0" font-size="10" text-anchor="middle" fill="#114">62</text>
<rect x="1744.1" y="234.0" width="46.4" height="22.0" fill="#eef3ff" stroke="#2d7ff9" stroke-width="0.8"/>
<text x="1767.3" y="249.0" font-size="10" text-anchor="middle" fill="#114">63</text>
<rect x="1790.5" y="234.0" width="69.5" height="22.0" fill="#eef3ff" stroke="#2d7ff9" stroke-width="0.8"/>
<text x="1825.2" y="249.0" font-size="10" text-anchor="middle" fill="#114">64</text>
<text x="133" y="298.0" font-size="13" text-anchor="end" fill="#222">wen</text>
<line x1="145" y1="312" x2="1860" y2="312" stroke="#bbb"/>
<line x1="145.0" y1="303.0" x2="1860.0" y2="303.0" stroke="#333" stroke-width="2"/>
<text x="133" y="346.0" font-size="13" text-anchor="end" fill="#222">ren</text>
<line x1="145" y1="360" x2="1860" y2="360" stroke="#bbb"/>
<line x1="145.0" y1="331.0" x2="170.5" y2="331.0" stroke="#006600" stroke-width="2"/>
<line x1="170.5" y1="351.0" x2="191.4" y2="351.0" stroke="#333" stroke-width="2"/>
<line x1="191.4" y1="331.0" x2="216.8" y2="331.0" stroke="#006600" stroke-width="2"/>
<line x1="216.8" y1="351.0" x2="237.7" y2="351.0" stroke="#333" stroke-width="2"/>
<line x1="237.7" y1="331.0" x2="263.2" y2="331.0" stroke="#006600" stroke-width="2"/>
<line x1="263.2" y1="351.0" x2="330.4" y2="351.0" stroke="#333" stroke-width="2"/>
<line x1="330.4" y1="331.0" x2="355.9" y2="331.0" stroke="#006600" stroke-width="2"/>
<line x1="355.9" y1="351.0" x2="376.8" y2="351.0" stroke="#333" stroke-width="2"/>
<line x1="376.8" y1="331.0" x2="402.2" y2="331.0" stroke="#006600" stroke-width="2"/>
<line x1="402.2" y1="351.0" x2="423.1" y2="351.0" stroke="#333" stroke-width="2"/>
<line x1="423.1" y1="331.0" x2="448.6" y2="331.0" stroke="#006600" stroke-width="2"/>
<line x1="448.6" y1="351.0" x2="469.5" y2="351.0" stroke="#333" stroke-width="2"/>
<line x1="469.5" y1="331.0" x2="495.0" y2="331.0" stroke="#006600" stroke-width="2"/>
<line x1="495.0" y1="351.0" x2="515.8" y2="351.0" stroke="#333" stroke-width="2"/>
<line x1="515.8" y1="331.0" x2="541.3" y2="331.0" stroke="#006600" stroke-width="2"/>
<line x1="541.3" y1="351.0" x2="562.2" y2="351.0" stroke="#333" stroke-width="2"/>
<line x1="562.2" y1="331.0" x2="587.7" y2="331.0" stroke="#006600" stroke-width="2"/>
<line x1="587.7" y1="351.0" x2="608.5" y2="351.0" stroke="#333" stroke-width="2"/>
<line x1="608.5" y1="331.0" x2="634.0" y2="331.0" stroke="#006600" stroke-width="2"/>
<line x1="634.0" y1="351.0" x2="654.9" y2="351.0" stroke="#333" stroke-width="2"/>
<line x1="654.9" y1="331.0" x2="680.4" y2="331.0" stroke="#006600" stroke-width="2"/>
<line x1="680.4" y1="351.0" x2="701.2" y2="351.0" stroke="#333" stroke-width="2"/>
<line x1="701.2" y1="331.0" x2="726.7" y2="331.0" stroke="#006600" stroke-width="2"/>
<line x1="726.7" y1="351.0" x2="747.6" y2="351.0" stroke="#333" stroke-width="2"/>
<line x1="747.6" y1="331.0" x2="773.1" y2="331.0" stroke="#006600" stroke-width="2"/>
<line x1="773.1" y1="351.0" x2="793.9" y2="351.0" stroke="#333" stroke-width="2"/>
<line x1="793.9" y1="331.0" x2="819.4" y2="331.0" stroke="#006600" stroke-width="2"/>
<line x1="819.4" y1="351.0" x2="840.3" y2="351.0" stroke="#333" stroke-width="2"/>
<line x1="840.3" y1="331.0" x2="865.8" y2="331.0" stroke="#006600" stroke-width="2"/>
<line x1="865.8" y1="351.0" x2="886.6" y2="351.0" stroke="#333" stroke-width="2"/>
<line x1="886.6" y1="331.0" x2="912.1" y2="331.0" stroke="#006600" stroke-width="2"/>
<line x1="912.1" y1="351.0" x2="933.0" y2="351.0" stroke="#333" stroke-width="2"/>
<line x1="933.0" y1="331.0" x2="958.5" y2="331.0" stroke="#006600" stroke-width="2"/>
<line x1="958.5" y1="351.0" x2="979.3" y2="351.0" stroke="#333" stroke-width="2"/>
<line x1="979.3" y1="331.0" x2="1004.8" y2="331.0" stroke="#006600" stroke-width="2"/>
<line x1="1004.8" y1="351.0" x2="1025.7" y2="351.0" stroke="#333" stroke-width="2"/>
<line x1="1025.7" y1="331.0" x2="1051.2" y2="331.0" stroke="#006600" stroke-width="2"/>
<line x1="1051.2" y1="351.0" x2="1072.0" y2="351.0" stroke="#333" stroke-width="2"/>
<line x1="1072.0" y1="331.0" x2="1097.5" y2="331.0" stroke="#006600" stroke-width="2"/>
<line x1="1097.5" y1="351.0" x2="1118.4" y2="351.0" stroke="#333" stroke-width="2"/>
<line x1="1118.4" y1="331.0" x2="1143.9" y2="331.0" stroke="#006600" stroke-width="2"/>
<line x1="1143.9" y1="351.0" x2="1164.7" y2="351.0" stroke="#333" stroke-width="2"/>
<line x1="1164.7" y1="331.0" x2="1190.2" y2="331.0" stroke="#006600" stroke-width="2"/>
<line x1="1190.2" y1="351.0" x2="1211.1" y2="351.0" stroke="#333" stroke-width="2"/>
<line x1="1211.1" y1="331.0" x2="1236.6" y2="331.0" stroke="#006600" stroke-width="2"/>
<line x1="1236.6" y1="351.0" x2="1257.4" y2="351.0" stroke="#333" stroke-width="2"/>
<line x1="1257.4" y1="331.0" x2="1282.9" y2="331.0" stroke="#006600" stroke-width="2"/>
<line x1="1282.9" y1="351.0" x2="1303.8" y2="351.0" stroke="#333" stroke-width="2"/>
<line x1="1303.8" y1="331.0" x2="1329.3" y2="331.0" stroke="#006600" stroke-width="2"/>
<line x1="1329.3" y1="351.0" x2="1350.1" y2="351.0" stroke="#333" stroke-width="2"/>
<line x1="1350.1" y1="331.0" x2="1375.6" y2="331.0" stroke="#006600" stroke-width="2"/>
<line x1="1375.6" y1="351.0" x2="1396.5" y2="351.0" stroke="#333" stroke-width="2"/>
<line x1="1396.5" y1="331.0" x2="1422.0" y2="331.0" stroke="#006600" stroke-width="2"/>
<line x1="1422.0" y1="351.0" x2="1442.8" y2="351.0" stroke="#333" stroke-width="2"/>
<line x1="1442.8" y1="331.0" x2="1468.3" y2="331.0" stroke="#006600" stroke-width="2"/>
<line x1="1468.3" y1="351.0" x2="1489.2" y2="351.0" stroke="#333" stroke-width="2"/>
<line x1="1489.2" y1="331.0" x2="1514.7" y2="331.0" stroke="#006600" stroke-width="2"/>
<line x1="1514.7" y1="351.0" x2="1535.5" y2="351.0" stroke="#333" stroke-width="2"/>
<line x1="1535.5" y1="331.0" x2="1561.0" y2="331.0" stroke="#006600" stroke-width="2"/>
<line x1="1561.0" y1="351.0" x2="1581.9" y2="351.0" stroke="#333" stroke-width="2"/>
<line x1="1581.9" y1="331.0" x2="1607.4" y2="331.0" stroke="#006600" stroke-width="2"/>
<line x1="1607.4" y1="351.0" x2="1628.2" y2="351.0" stroke="#333" stroke-width="2"/>
<line x1="1628.2" y1="331.0" x2="1653.7" y2="331.0" stroke="#006600" stroke-width="2"/>
<line x1="1653.7" y1="351.0" x2="1674.6" y2="351.0" stroke="#333" stroke-width="2"/>
<line x1="1674.6" y1="331.0" x2="1700.1" y2="331.0" stroke="#006600" stroke-width="2"/>
<line x1="1700.1" y1="351.0" x2="1720.9" y2="351.0" stroke="#333" stroke-width="2"/>
<line x1="1720.9" y1="331.0" x2="1746.4" y2="331.0" stroke="#006600" stroke-width="2"/>
<line x1="1746.4" y1="351.0" x2="1767.3" y2="351.0" stroke="#333" stroke-width="2"/>
<line x1="1767.3" y1="331.0" x2="1792.8" y2="331.0" stroke="#006600" stroke-width="2"/>
<line x1="1792.8" y1="351.0" x2="1860.0" y2="351.0" stroke="#333" stroke-width="2"/>
<text x="133" y="394.0" font-size="13" text-anchor="end" fill="#222">full</text>
<line x1="145" y1="408" x2="1860" y2="408" stroke="#bbb"/>
<line x1="145.0" y1="399.0" x2="1860.0" y2="399.0" stroke="#333" stroke-width="2"/>
<text x="133" y="442.0" font-size="13" text-anchor="end" fill="#222">half_full</text>
<line x1="145" y1="456" x2="1860" y2="456" stroke="#bbb"/>
<line x1="145.0" y1="427.0" x2="437.6" y2="427.0" stroke="#006600" stroke-width="2"/>
<line x1="437.6" y1="447.0" x2="1860.0" y2="447.0" stroke="#333" stroke-width="2"/>
<text x="133" y="490.0" font-size="13" text-anchor="end" fill="#222">empty</text>
<line x1="145" y1="504" x2="1860" y2="504" stroke="#bbb"/>
<line x1="145.0" y1="495.0" x2="1790.5" y2="495.0" stroke="#333" stroke-width="2"/>
<line x1="1790.5" y1="475.0" x2="1860.0" y2="475.0" stroke="#006600" stroke-width="2"/>
<text x="133" y="538.0" font-size="13" text-anchor="end" fill="#222">half_empty</text>
<line x1="145" y1="552" x2="1860" y2="552" stroke="#bbb"/>
<line x1="145.0" y1="543.0" x2="260.9" y2="543.0" stroke="#333" stroke-width="2"/>
<line x1="260.9" y1="523.0" x2="1860.0" y2="523.0" stroke="#006600" stroke-width="2"/>
</svg>
